HIERARCHY
ROOT Hips
{
	OFFSET 0.000000 103.266502 0.000000
	CHANNELS 6 Xposition Yposition Zposition Xrotation Yrotation Zrotation 
	JOINT Spine
	{
		OFFSET -0.002400 12.777504 0.315300
		CHANNELS 3 Xrotation Yrotation Zrotation
		JOINT Spine1
		{
			OFFSET -0.002067 5.816869 0.032633
			CHANNELS 3 Xrotation Yrotation Zrotation
			JOINT Spine1_split
			{
				OFFSET -0.002067 5.816869 0.032633
				CHANNELS 3 Xrotation Yrotation Zrotation
				JOINT Spine2
				{
					OFFSET -0.002067 5.816869 0.032633
					CHANNELS 3 Xrotation Yrotation Zrotation
					JOINT Neck
					{
						OFFSET -0.003700 21.199493 -0.826900
						CHANNELS 3 Xrotation Yrotation Zrotation
						JOINT Head
						{
							OFFSET 0.000000 20.442200 4.834800
							CHANNELS 3 Xrotation Yrotation Zrotation
							JOINT HeadTop_End
							{
								OFFSET 0.000000 34.668396 4.968400
								CHANNELS 3 Xrotation Yrotation Zrotation
								End Site
								{
									OFFSET 0.000000 0.000000 0.000000
								}
							}
						}
					}
					JOINT LeftShoulder
					{
						OFFSET 3.288150 8.794197 -1.372250
						CHANNELS 3 Xrotation Yrotation Zrotation
						JOINT LeftShoulder_split
						{
							OFFSET 3.288150 8.794197 -1.372250
							CHANNELS 3 Xrotation Yrotation Zrotation
							JOINT LeftArm
							{
								OFFSET 11.953299 -2.279007 -0.146200
								CHANNELS 3 Xrotation Yrotation Zrotation
								JOINT LeftForeArm
								{
									OFFSET 18.448900 0.000000 0.000000
									CHANNELS 3 Xrotation Yrotation Zrotation
									JOINT LeftHand
									{
										OFFSET 29.527798 0.000000 0.000000
										CHANNELS 3 Xrotation Yrotation Zrotation
										JOINT LeftHandThumb1
										{
											OFFSET 10.739754 -2.369614 9.225399
											CHANNELS 3 Xrotation Yrotation Zrotation
											JOINT LeftHandThumb2
											{
												OFFSET 4.926170 -2.844131 2.844125
												CHANNELS 3 Xrotation Yrotation Zrotation
												JOINT LeftHandThumb3
												{
													OFFSET 4.614891 -2.664413 2.664409
													CHANNELS 3 Xrotation Yrotation Zrotation
													JOINT LeftHandThumb4
													{
														OFFSET 4.432465 -2.559082 2.559083
														CHANNELS 3 Xrotation Yrotation Zrotation
														End Site
														{
															OFFSET 0.000000 0.000000 0.000000
														}
													}
												}
											}
										}
										JOINT LeftHandIndex1
										{
											OFFSET 26.467674 0.187653 6.405298
											CHANNELS 3 Xrotation Yrotation Zrotation
											JOINT LeftHandIndex2
											{
												OFFSET 8.792900 0.000000 0.000000
												CHANNELS 3 Xrotation Yrotation Zrotation
												JOINT LeftHandIndex3
												{
													OFFSET 10.075203 0.000000 0.000000
													CHANNELS 3 Xrotation Yrotation Zrotation
													End Site
													{
														OFFSET 0.000000 0.000000 0.000000
													}
												}
											}
										}
										JOINT LeftHandMiddle1
										{
											OFFSET 25.764404 0.000000 0.000000
											CHANNELS 3 Xrotation Yrotation Zrotation
											JOINT LeftHandMiddle2
											{
												OFFSET 9.393974 0.000000 0.000000
												CHANNELS 3 Xrotation Yrotation Zrotation
												JOINT LeftHandMiddle3
												{
													OFFSET 10.771950 0.000000 0.000000
													CHANNELS 3 Xrotation Yrotation Zrotation
													End Site
													{
														OFFSET 0.000000 0.000000 0.000000
													}
												}
											}
										}
										JOINT LeftHandRing1
										{
											OFFSET 24.660927 0.144547 -6.225808
											CHANNELS 3 Xrotation Yrotation Zrotation
											JOINT LeftHandRing2
											{
												OFFSET 9.393799 0.000000 0.000000
												CHANNELS 3 Xrotation Yrotation Zrotation
												JOINT LeftHandRing3
												{
													OFFSET 9.928497 0.000000 0.000000
													CHANNELS 3 Xrotation Yrotation Zrotation
													End Site
													{
														OFFSET 0.000000 0.000000 0.000000
													}
												}
											}
										}
										JOINT LeftHandPinky1
										{
											OFFSET 23.655350 0.125290 -12.815412
											CHANNELS 3 Xrotation Yrotation Zrotation
											JOINT LeftHandPinky2
											{
												OFFSET 8.425102 0.000000 0.000000
												CHANNELS 3 Xrotation Yrotation Zrotation
												JOINT LeftHandPinky3
												{
													OFFSET 8.147003 0.000000 0.000000
													CHANNELS 3 Xrotation Yrotation Zrotation
													End Site
													{
														OFFSET 0.000000 0.000000 0.000000
													}
												}
											}
										}
									}
								}
							}
						}
					}
					JOINT RightShoulder
					{
						OFFSET -3.249400 8.794197 -1.372250
						CHANNELS 3 Xrotation Yrotation Zrotation
						JOINT RightShoulder_split
						{
							OFFSET -3.249400 8.794197 -1.372250
							CHANNELS 3 Xrotation Yrotation Zrotation
							JOINT RightArm
							{
								OFFSET -11.953299 -2.279007 -0.146200
								CHANNELS 3 Xrotation Yrotation Zrotation
								JOINT RightForeArm
								{
									OFFSET -18.448900 0.000000 0.000000
									CHANNELS 3 Xrotation Yrotation Zrotation
									JOINT RightHand
									{
										OFFSET -29.527802 0.000000 0.000000
										CHANNELS 3 Xrotation Yrotation Zrotation
										JOINT RightHandThumb1
										{
											OFFSET -10.739754 -2.369614 9.225399
											CHANNELS 3 Xrotation Yrotation Zrotation
											JOINT RightHandThumb2
											{
												OFFSET -4.926170 -2.844131 2.844125
												CHANNELS 3 Xrotation Yrotation Zrotation
												JOINT RightHandThumb3
												{
													OFFSET -4.614891 -2.664413 2.664409
													CHANNELS 3 Xrotation Yrotation Zrotation
													JOINT RightHandThumb4
													{
														OFFSET -4.432465 -2.559082 2.559083
														CHANNELS 3 Xrotation Yrotation Zrotation
														End Site
														{
															OFFSET 0.000000 0.000000 0.000000
														}
													}
												}
											}
										}
										JOINT RightHandIndex1
										{
											OFFSET -26.467674 0.187653 6.405298
											CHANNELS 3 Xrotation Yrotation Zrotation
											JOINT RightHandIndex2
											{
												OFFSET -8.792900 0.000000 0.000000
												CHANNELS 3 Xrotation Yrotation Zrotation
												JOINT RightHandIndex3
												{
													OFFSET -10.075203 0.000000 0.000000
													CHANNELS 3 Xrotation Yrotation Zrotation
													End Site
													{
														OFFSET 0.000000 0.000000 0.000000
													}
												}
											}
										}
										JOINT RightHandMiddle1
										{
											OFFSET -25.764404 0.000000 0.000000
											CHANNELS 3 Xrotation Yrotation Zrotation
											JOINT RightHandMiddle2
											{
												OFFSET -9.393974 0.000000 0.000000
												CHANNELS 3 Xrotation Yrotation Zrotation
												JOINT RightHandMiddle3
												{
													OFFSET -10.771950 0.000000 0.000000
													CHANNELS 3 Xrotation Yrotation Zrotation
													End Site
													{
														OFFSET 0.000000 0.000000 0.000000
													}
												}
											}
										}
										JOINT RightHandRing1
										{
											OFFSET -24.660927 0.144547 -6.225808
											CHANNELS 3 Xrotation Yrotation Zrotation
											JOINT RightHandRing2
											{
												OFFSET -9.393799 0.000000 0.000000
												CHANNELS 3 Xrotation Yrotation Zrotation
												JOINT RightHandRing3
												{
													OFFSET -9.928497 0.000000 0.000000
													CHANNELS 3 Xrotation Yrotation Zrotation
													End Site
													{
														OFFSET 0.000000 0.000000 0.000000
													}
												}
											}
										}
										JOINT RightHandPinky1
										{
											OFFSET -23.655350 0.125290 -12.815412
											CHANNELS 3 Xrotation Yrotation Zrotation
											JOINT RightHandPinky2
											{
												OFFSET -8.425102 0.000000 0.000000
												CHANNELS 3 Xrotation Yrotation Zrotation
												JOINT RightHandPinky3
												{
													OFFSET -8.147003 0.000000 0.000000
													CHANNELS 3 Xrotation Yrotation Zrotation
													End Site
													{
														OFFSET 0.000000 0.000000 0.000000
													}
												}
											}
										}
									}
								}
							}
						}
					}
				}
			}
		}
	}
	JOINT LeftUpLeg
	{
		OFFSET 11.394100 -6.187798 -0.413800
		CHANNELS 3 Xrotation Yrotation Zrotation
		JOINT LeftLeg
		{
			OFFSET 0.430247 -32.302673 3.732800
			CHANNELS 3 Xrotation Yrotation Zrotation
			JOINT LeftFoot
			{
				OFFSET -0.430247 -48.264931 -6.423300
				CHANNELS 3 Xrotation Yrotation Zrotation
				JOINT LeftToeBase
				{
					OFFSET 4.230900 -16.068199 23.438400
					CHANNELS 3 Xrotation Yrotation Zrotation
					JOINT LeftToe_End
					{
						OFFSET 4.510700 0.695400 19.974600
						CHANNELS 3 Xrotation Yrotation Zrotation
						End Site
						{
							OFFSET 0.000000 0.000000 0.000000
						}
					}
				}
			}
		}
	}
	JOINT RightUpLeg
	{
		OFFSET -11.333700 -6.187798 -0.413800
		CHANNELS 3 Xrotation Yrotation Zrotation
		JOINT RightLeg
		{
			OFFSET -0.430392 -32.302628 3.733000
			CHANNELS 3 Xrotation Yrotation Zrotation
			JOINT RightFoot
			{
				OFFSET 0.430392 -48.264973 -6.423500
				CHANNELS 3 Xrotation Yrotation Zrotation
				JOINT RightToeBase
				{
					OFFSET -4.230900 -16.068199 23.438400
					CHANNELS 3 Xrotation Yrotation Zrotation
					JOINT RightToe_End
					{
						OFFSET -4.510700 0.695400 19.974600
						CHANNELS 3 Xrotation Yrotation Zrotation
						End Site
						{
							OFFSET 0.000000 0.000000 0.000000
						}
					}
				}
			}
		}
	}
}
MOTION
Frames: 4
Frame Time: 0.016667
-1.302204 94.094841 0.073369 -5.667532 -42.509250 -2.697751 5.900701 0.605608 -0.057826 11.805243 0.991256 -0.356033 0.000000 0.000000 0.000000 11.805237 0.991257 -0.356032 5.454847 -28.041994 -1.570763 -9.679873 -42.734557 2.179725 -0.000000 -0.000000 -0.000000 0.953417 -3.294064 -6.337552 0.000000 0.000000 0.000000 -7.803582 10.695480 -60.595710 -1.858039 -56.426351 -5.060456 4.516198 -4.170938 22.267574 11.334896 9.730346 -4.479187 3.334384 8.219301 1.772104 0.000001 -0.000004 -0.000012 -0.000001 0.000001 -0.000000 2.657348 -3.651126 -37.231464 -2.225250 -2.598638 -50.721968 0.000001 -0.000001 -0.000003 0.107956 6.609299 -47.483878 -2.786361 -4.412147 -56.251242 0.000002 -0.000003 -0.000000 -2.805077 11.224155 -62.315388 -2.190466 -4.064433 -66.809277 -0.000004 0.000004 -0.000000 -6.755476 4.974051 -66.027971 -1.326983 -6.176984 -73.865614 -0.000004 -0.000000 0.000001 1.781014 9.143867 7.041884 0.000000 0.000000 0.000000 5.733463 -24.152580 68.587653 -7.143943 60.700253 7.121731 7.495360 6.265631 -16.551772 2.659602 -9.639247 12.705359 9.977286 -18.153792 0.046826 -0.000005 0.000001 -0.000010 -0.000003 0.000003 0.000002 3.448083 -2.832148 46.578134 -2.544540 2.250447 60.768890 -0.000001 -0.000001 -0.000000 -1.797307 -0.803630 42.426898 -4.426264 4.278486 82.714581 -0.000004 0.000003 -0.000001 -4.363423 -0.803135 50.285366 -4.892199 5.732352 89.685991 -0.000005 0.000002 -0.000001 -8.591770 0.616679 50.078841 -5.070528 9.380845 93.712210 0.000000 -0.000001 0.000000 -30.105565 4.094001 11.694983 34.297891 -11.954130 2.182147 -2.057390 0.359580 -10.555786 -2.715869 -3.120901 0.659116 -0.000000 -0.000001 -0.000000 -4.567996 -14.139385 -15.993057 32.233094 18.773315 -4.500603 -26.235943 -1.543822 5.251017 -1.576692 -1.962059 2.928653 -0.000000 -0.000000 -0.000000 
-1.321232 94.181747 0.071867 -5.754993 -44.416655 -2.833372 5.946998 0.334205 -0.016773 11.895476 0.464801 -0.236213 0.000000 0.000000 0.000000 11.895490 0.464794 -0.236206 5.195391 -27.982385 -1.762658 -9.294778 -43.262825 2.943800 -0.000000 0.000002 0.000001 0.886144 -3.734530 -6.257958 0.000000 0.000000 0.000000 -7.277730 11.319168 -60.862334 -1.912548 -56.844075 -5.070235 4.598251 -4.482955 22.325457 11.166515 9.800977 -4.305337 3.299761 8.317257 1.736558 -0.000002 -0.000003 -0.000013 -0.000001 0.000001 0.000000 2.430035 -3.828149 -36.215534 -2.114161 -2.506268 -49.528434 0.000001 0.000001 -0.000001 0.215175 6.756684 -46.504490 -2.677658 -4.338595 -55.049989 -0.000001 0.000002 -0.000001 -2.571705 11.355778 -61.525798 -2.125223 -4.036820 -65.648370 0.000000 -0.000000 -0.000002 -6.144475 5.321278 -65.117268 -1.302554 -6.170240 -72.693690 -0.000001 0.000002 -0.000000 1.849861 8.523537 7.171787 0.000000 0.000000 0.000000 5.962384 -24.111205 68.526974 -7.077207 61.206336 7.218127 7.457466 6.199115 -16.983252 2.643638 -9.750528 12.704181 10.045724 -18.113347 0.095453 0.000000 0.000001 -0.000014 0.000002 0.000000 -0.000002 3.693285 -2.557010 47.479900 -2.589260 2.274951 61.275403 -0.000000 0.000002 -0.000001 -1.828336 -0.767080 43.027777 -4.489842 4.286458 83.433623 0.000002 0.000000 0.000000 -4.453569 -0.817821 50.903207 -4.955593 5.732762 90.416999 -0.000001 -0.000001 -0.000000 -8.704308 0.527756 50.621612 -5.118165 9.370076 94.249507 -0.000002 -0.000001 0.000000 -29.476323 4.429913 12.338721 34.031319 -10.681229 2.031298 -2.266718 0.408050 -10.883380 -2.692466 -3.093338 0.643720 -0.000000 0.000002 0.000000 -5.558685 -13.969156 -16.187571 32.556831 19.347885 -4.826442 -25.778087 -1.495744 5.446284 -1.482207 -1.713846 2.855418 -0.000000 -0.000001 -0.000000 
-1.347091 94.269073 0.064284 -5.879698 -46.331267 -2.978107 5.994624 0.058438 0.019850 11.989270 -0.070025 -0.121169 0.000000 0.000000 0.000000 11.989275 -0.070040 -0.121164 4.858836 -27.854888 -2.018469 -8.864674 -43.760274 3.691629 -0.000000 0.000000 0.000002 0.810229 -4.308829 -6.381134 0.000000 0.000000 0.000000 -6.676079 12.150740 -60.876711 -2.277416 -57.498670 -5.268948 4.466191 -4.693805 22.282246 10.967479 9.825544 -4.124768 3.258296 8.415876 1.703276 -0.000000 -0.000003 -0.000017 -0.000003 -0.000000 -0.000001 2.194168 -4.002788 -35.091121 -1.993671 -2.401478 -48.208927 -0.000000 -0.000001 -0.000003 0.327776 6.910725 -45.419757 -2.561319 -4.255981 -53.740769 0.000001 -0.000001 -0.000001 -2.325155 11.481182 -60.605477 -2.055394 -4.005521 -64.391253 -0.000002 -0.000002 -0.000002 -5.502782 5.688521 -64.103094 -1.276569 -6.162475 -71.433861 0.000002 0.000001 -0.000001 1.951320 7.799978 7.121222 0.000000 0.000000 0.000000 6.182286 -23.943563 68.623846 -6.650507 61.549225 7.002532 7.654156 6.217752 -17.779944 2.794229 -9.711136 12.808119 10.023098 -18.127602 0.049076 -0.000002 0.000001 -0.000008 -0.000002 -0.000001 -0.000003 3.955473 -2.272772 48.348037 -2.630133 2.296963 61.736891 -0.000002 -0.000002 0.000001 -1.858067 -0.736062 43.602903 -4.552193 4.293551 84.138771 0.000005 -0.000001 -0.000000 -4.541483 -0.832925 51.507498 -5.016384 5.732369 91.119737 -0.000003 0.000000 0.000000 -8.806170 0.435158 51.132067 -5.163177 9.357127 94.720783 -0.000000 0.000002 0.000000 -28.795770 4.794628 12.952982 33.742378 -9.400727 1.875621 -2.465651 0.457813 -11.220123 -2.671755 -3.066294 0.628142 0.000000 -0.000000 -0.000000 -6.533381 -13.758335 -16.338132 32.900471 19.806715 -5.174879 -25.314990 -1.450551 5.655447 -1.356154 -1.475251 2.774605 0.000000 0.000001 -0.000000 
-1.372255 94.349205 0.060614 -6.033277 -48.282454 -3.141859 6.035229 -0.238897 0.059185 12.069951 -0.647007 0.003705 0.000000 0.000000 0.000000 12.069939 -0.647006 0.003699 4.521431 -27.652216 -2.326641 -8.508140 -44.111414 4.370738 0.000000 -0.000001 -0.000001 0.756131 -4.664586 -6.306318 0.000000 0.000000 0.000000 -6.104455 12.854885 -61.074855 -2.488538 -57.874829 -5.355657 4.470194 -4.729149 21.933213 10.762685 9.805498 -3.951559 3.232078 8.534432 1.656947 0.000000 -0.000003 -0.000015 0.000001 -0.000001 0.000003 1.952084 -4.165051 -33.893431 -1.868553 -2.287431 -46.810763 -0.000001 -0.000000 -0.000001 0.445425 7.069483 -44.252451 -2.441575 -4.166761 -52.371831 0.000002 0.000001 0.000001 -2.065076 11.603913 -59.582916 -1.981971 -3.970592 -63.058533 -0.000002 -0.000001 0.000002 -4.835918 6.085362 -62.981550 -1.248582 -6.153400 -70.072304 -0.000003 0.000000 -0.000001 2.018774 7.202336 7.250131 0.000000 0.000000 0.000000 6.408694 -23.946227 68.399857 -6.276794 62.142407 6.935109 7.705293 6.072067 -18.489232 3.013034 -9.639045 12.943712 9.983779 -18.171715 -0.016027 -0.000009 -0.000002 -0.000011 0.000002 -0.000001 -0.000001 4.245910 -1.998522 49.180436 -2.670623 2.318255 62.191201 0.000000 0.000001 0.000001 -1.884914 -0.716104 44.128804 -4.613435 4.299704 84.829269 0.000002 -0.000001 0.000001 -4.614507 -0.847623 52.003722 -5.073342 5.731339 91.776180 0.000001 -0.000001 -0.000000 -8.899395 0.347957 51.604606 -5.216883 9.348927 95.474522 0.000002 0.000002 0.000003 -28.079446 5.145976 13.529405 33.468668 -8.050612 1.734241 -2.669293 0.511062 -11.586620 -2.653140 -3.037886 0.611149 -0.000000 -0.000001 -0.000000 -7.528679 -13.531396 -16.471099 33.271419 20.258350 -5.530122 -24.826563 -1.412791 5.892724 -1.294135 -1.302447 2.708693 -0.000000 -0.000001 -0.000000 
